# xmcd
#
# Track frame offsets:
#	150
#	14452
#	29715
#	45000
#	61440
#	74615
#	96890
#	107887
#	119540
#	131827
#
# Disc length: 1950 seconds
#
# Revision: 0
# Processed by: cddbd v1.4PL0 Copyright (c) Steve Scherf et al.
# Submitted via: EasyCDDAExtractor 4.6.0.1
#
DISCID=91079c0a
DTITLE=Rosanne Cash - The Country Side
DYEAR=1996
DGENRE=Country
TTITLE0=Tennessee Flat Top Box
TTITLE1=It Hasn't Happened Yet
TTITLE2=Right Or Wrong
TTITLE3=Third Rate Romance
TTITLE4=My Old Man
TTITLE5=Anybody's Darlin' (Anything But Mine)
TTITLE6=That's How I Got To Memphis
TTITLE7=You Don't Have Very Far To Go
TTITLE8=Big River
TTITLE9=My Baby Thinks He's A Train
EXTD=
EXTT0=
EXTT1=
EXTT2=
EXTT3=
EXTT4=
EXTT5=
EXTT6=
EXTT7=
EXTT8=
EXTT9=
PLAYORDER=
